inDegrees=yes
name=ik_S50_A04_T01
DataType=double
version=3
OpenSimVersion=4.3-2021-08-27-4bc7ad9
endheader
time	pelvis_tilt	pelvis_list	pelvis_rotation	pelvis_tx	pelvis_ty	pelvis_tz	hip_flexion_r	hip_adduction_r	hip_rotation_r	knee_angle_r	knee_angle_r_beta	ankle_angle_r	subtalar_angle_r	mtp_angle_r	hip_flexion_l	hip_adduction_l	hip_rotation_l	knee_angle_l	knee_angle_l_beta	ankle_angle_l	subtalar_angle_l	mtp_angle_l	lumbar_extension	lumbar_bending	lumbar_rotation	arm_flex_r	arm_add_r	arm_rot_r	elbow_flex_r	pro_sup_r	wrist_flex_r	wrist_dev_r	arm_flex_l	arm_add_l	arm_rot_l	elbow_flex_l	pro_sup_l	wrist_flex_l	wrist_dev_l
6.039999999999959	10.46247669916437	9.140192202471376	27.1117887396973	0	0.9399999999999999	0	59.84616604454753	-2.590321051710196	-7.494310139457791	79.84501879850529	1.393558469350684	0	0	0	62.57526346628327	-1.871974368258439	-23.65682240896941	81.70196129147918	1.42596822987327	0	0	0	0	0	0	22.146530745202	-22.146530745202	3.488435391955858	65.67828211756508	86.51156480720132	0	0	22.146530745202	-22.146530745202	3.488435391955858	65.67828211756508	86.51156480691951	0	0
6.059999999999959	9.835237071260579	8.641742791805823	27.13832063493093	0	0.9399999999999999	0	60.3178760396679	-2.381628516350864	-7.336401628527897	79.63998252804814	1.389979911345197	0	0	0	63.2641801134047	-2.042474990001558	-23.3633057362705	81.65901606090458	1.425218694201715	0	0	0	0	0	0	22.14823789533328	-22.14823789533328	3.488653648105298	65.68118595915048	86.51134655106378	0	0	22.14823789533328	-22.14823789533328	3.488653648105298	65.68118595915048	86.51134655078204	0	0
6.079999999999958	9.607224682126571	8.481041942939255	27.17685511410964	0	0.9399999999999999	0	60.56580673085721	-2.373433295256957	-7.362890104696807	79.57164677741041	1.388787227499747	0	0	0	63.44332180045323	-2.056304509476352	-23.13663542878942	81.67160176781823	1.42543835622605	0	0	0	0	0	0	22.15007141382439	-22.15007141382439	3.488889059246902	65.68431976020442	86.51111113993504	0	0	22.15007141382439	-22.15007141382439	3.488889059246902	65.68431976020442	86.51111113965331	0	0
6.099999999999958	9.114674804352305	8.095336658282124	27.27266664580088	0	0.9399999999999999	0	60.97673986702729	-2.304843456999377	-7.307821611302289	79.5090769928359	1.387695178746658	0	0	0	63.95024370350099	-2.064028755616156	-22.87970398372479	81.63364630957766	1.424775908510648	0	0	0	0	0	0	22.15171586333998	-22.15171586333998	3.489099207806976	65.68711551797439	86.51090099138644	0	0	22.15171586333998	-22.15171586333998	3.489099207806976	65.68711551797439	86.51090099110472	0	0
6.119999999999957	8.290818908788772	7.390945896686836	27.36715704619704	0	0.9399999999999999	0	61.84567279005073	-2.122039895519972	-7.405121199503826	79.36011271325091	1.385095261600039	0	0	0	64.88979803473232	-2.192175025312098	-22.53845680546877	81.57934619389242	1.423828192707727	0	0	0	0	0	0	22.15389146572658	-22.15389146572658	3.489377122242144	65.69081257730616	86.51062307696641	0	0	22.15389146572658	-22.15389146572658	3.489377122242144	65.69081257730616	86.51062307668482	0	0
6.139999999999957	8.021428536807354	7.134260423768792	27.39364800226289	0	0.9399999999999999	0	62.02631425617475	-2.013297795554825	-7.321012643917111	79.3412273558788	1.38476564993348	0	0	0	65.2404427699656	-2.260444218580479	-22.42273698780343	81.61167946475244	1.424392514742174	0	0	0	0	0	0	22.15545501460226	-22.15545501460226	3.489577388179843	65.69347759684979	86.51042281103965	0	0	22.15545501460226	-22.15545501460226	3.489577388179843	65.69347759684979	86.51042281075812	0	0
6.159999999999957	7.479094907919407	6.686190830936074	27.42706833196822	0	0.9399999999999999	0	62.53706904496784	-1.891421334445748	-7.308984203082954	79.2639012397206	1.38341605460874	0	0	0	65.83379573578819	-2.361291996503952	-22.1581024152949	81.60487475977683	1.424273750235722	0	0	0	0	0	0	22.15741570726718	-22.15741570726718	3.489828161820084	65.69681408472837	86.51017203741308	0	0	22.15741570726718	-22.15741570726718	3.489828161820084	65.69681408472837	86.51017203713158	0	0
6.179999999999956	6.921457312208696	6.251361624755215	27.46742781806204	0	0.9399999999999999	0	63.04284925413631	-1.837603541854737	-7.235224128519718	79.17745034105351	1.381907201785691	0	0	0	66.49885848205248	-2.468202802588154	-22.00611612963155	81.67477306381798	1.425493705782801	0	0	0	0	0	0	22.15927182287072	-22.15927182287072	3.490065285903123	65.69996845648636	86.50993491334302	0	0	22.15927182287072	-22.15927182287072	3.490065285903123	65.69996845648636	86.50993491306153	0	0
6.199999999999956	6.401577108517346	5.842732937260838	27.4790818092818	0	0.9399999999999999	0	63.50890120618077	-1.712285242130725	-7.167904751824966	79.06594890012113	1.379961134520703	0	0	0	67.15430455899354	-2.549576016723502	-21.88646933152543	81.75947567551549	1.42697204524196	0	0	0	0	0	0	22.16117047831707	-22.16117047831707	3.490307726588488	65.70319331275275	86.50969247267091	0	0	22.16117047831707	-22.16117047831707	3.490307726588488	65.70319331275275	86.50969247238939	0	0
6.219999999999955	5.996139392716161	5.475002030719203	27.42283224776158	0	0.9399999999999999	0	63.82770863713928	-1.475624695645984	-7.071294035824661	78.9921773087847	1.378673577357447	0	0	0	67.67547605392539	-2.692379169038954	-21.76294386307741	81.85094439094931	1.42856847548885	0	0	0	0	0	0	22.16278785350507	-22.16278785350507	3.490514176149255	65.70593927098284	86.5094860231214	0	0	22.16278785350507	-22.16278785350507	3.490514176149255	65.70593927098284	86.50948602283991	0	0
6.239999999999955	5.849974849332503	5.31672398557736	27.39547519441882	0	0.9399999999999999	0	63.83115060253651	-1.255127686807509	-7.031556218749476	78.88019309538642	1.376719084123391	0	0	0	67.25618182904074	-2.624383068094681	-20.78863970544541	81.60785595290739	1.424325781871488	0	0	0	0	0	0	22.16673608278769	-22.16673608278769	3.491023468076761	65.71272223181225	86.50897673122174	0	0	22.16673608278769	-22.16673608278769	3.491023468076761	65.71272223181225	86.50897673094029	0	0
6.259999999999954	5.606360390663689	5.055085740295929	27.30794563656141	0	0.9399999999999999	0	63.95956975908953	-0.954165498327177	-6.94792649356504	78.77559230860535	1.374893455993884	0	0	0	67.44044674347333	-2.717907075628048	-20.51333461855138	81.49801292105279	1.422408659305253	0	0	0	0	0	0	22.16862352874537	-22.16862352874537	3.491265451832226	65.71594257997343	86.50873474747944	0	0	22.16862352874537	-22.16862352874537	3.491265451832226	65.71594257997343	86.50873474719805	0	0
6.279999999999954	5.249332781212529	4.58036695098526	27.02698333431798	0	0.9399999999999999	0	64.29104870813775	-0.4648386076238155	-6.868063371707551	78.64402700358453	1.37259720823988	0	0	0	67.81119966382623	-3.038094608626136	-20.14738036152498	81.42511716396386	1.421136388333317	0	0	0	0	0	0	22.17016978610699	-22.17016978610699	3.491462831925983	65.71856780952292	86.50853736739643	0	0	22.17016978610699	-22.17016978610699	3.491462831925983	65.71856780952292	86.50853736711511	0	0
6.299999999999954	5.089324204086547	4.362111152409727	26.90710758960145	0	0.9399999999999999	0	64.33961634477558	-0.1776466487335984	-6.802769744922537	78.50379785719915	1.370149747928194	0	0	0	67.87515060020789	-3.13022100373173	-19.88093093780197	81.39171310416354	1.420553377506268	0	0	0	0	0	0	22.17236918060588	-22.17236918060588	3.491745545140294	65.72233139040151	86.50825465419754	0	0	22.17236918060588	-22.17236918060588	3.491745545140294	65.72233139040151	86.5082546539163	0	0
6.319999999999953	4.70369592576063	3.990560661774596	26.64023809920792	0	0.9399999999999999	0	64.65062036919903	0.2413819949509216	-6.687960239215469	78.37560800120256	1.367912412873397	0	0	0	68.2079751900358	-3.392412253514384	-19.66969171614615	81.34507381793559	1.41973936840081	0	0	0	0	0	0	22.17411799273007	-22.17411799273007	3.491969524741203	65.72531163538972	86.50803067460889	0	0	22.17411799273007	-22.17411799273007	3.491969524741203	65.72531163538972	86.5080306743276	0	0
6.339999999999953	3.646851184993407	3.252448566781363	26.27497651293859	0	0.9399999999999999	0	65.60457497463683	0.840275183013083	-6.361061640718674	78.13959765794525	1.363793255314794	0	0	0	69.27695543235737	-3.809415093126314	-19.49604722304343	81.24740009266735	1.418034640302191	0	0	0	0	0	0	22.17665501687103	-22.17665501687103	3.492294745331006	65.72963943559795	86.50770545403682	0	0	22.17665501687103	-22.17665501687103	3.492294745331006	65.72963943559795	86.50770545375559	0	0
6.359999999999952	3.606968068152721	3.225287345641823	26.26928400322278	0	0.9399999999999999	0	65.57169383469225	0.8357915131517569	-6.075073896009306	78.12270916821052	1.363498495563234	0	0	0	69.16512378320722	-3.787937072513724	-19.22134335765232	81.26064742322484	1.41826584983752	0	0	0	0	0	0	22.1772979610835	-22.1772979610835	3.492374212122909	65.73069179663651	86.50762598724921	0	0	22.1772979610835	-22.1772979610835	3.492374212122909	65.73069179663651	86.50762598696798	0	0
6.379999999999952	2.904406942019068	2.770015084918206	25.91767431923782	0	0.9399999999999999	0	66.35605218160039	1.204561940411074	-5.985298213891662	78.05999468477957	1.362403921338677	0	0	0	69.76525959919046	-4.140631356912366	-18.95522911877075	81.20507986503513	1.417296012989816	0	0	0	0	0	0	22.17919439691011	-22.17919439691011	3.492617444314978	65.73392871175383	86.50738275507038	0	0	22.17919439691011	-22.17919439691011	3.492617444314978	65.73392871175383	86.50738275478923	0	0
6.399999999999952	2.579116797692481	2.666942317694867	25.77454607800234	0	0.9399999999999999	0	66.55342670021462	1.347933301707479	-5.681926233848358	78.02973557792033	1.36187580029527	0	0	0	69.85292383238438	-4.169777983538645	-18.77684268741274	81.1624095345076	1.416551275229196	0	0	0	0	0	0	22.18136880711976	-22.18136880711976	3.492897131712721	65.73765213840733	86.50710306768791	0	0	22.18136880711976	-22.18136880711976	3.492897131712721	65.73765213840733	86.50710306740677	0	0
6.419999999999951	2.552368203969864	3.100846320971272	25.89509326946359	0	0.9399999999999999	0	66.37231240431203	1.04763025832405	-5.293523010554313	78.04921147776851	1.36221571887241	0	0	0	69.41296536202451	-3.850345157058658	-18.85116825208171	81.10901201164131	1.41561931264277	0	0	0	0	0	0	22.18372573181935	-22.18372573181935	3.493198501112381	65.74166106003658	86.50680169830471	0	0	22.18372573181935	-22.18372573181935	3.493198501112381	65.74166106003658	86.50680169802366	0	0
